<svg fill="none" xmlns="http://www.w3.org/2000/svg" viewBox="0 0 162 21"><path d="M66.62 18v-5.99h3.62L73.192 18h1.851l-3.078-6.157c1.788-.561 3.182-1.976 3.182-4.118 0-2.6-2.017-4.368-4.472-4.368h-5.7V18h1.644Zm0-7.384V4.854h3.89c1.539 0 2.932 1.103 2.932 2.808 0 1.83-1.393 2.954-2.911 2.954h-3.91Zm14.624-3.349c-3.079 0-5.263 2.413-5.263 5.491 0 3.1 2.184 5.492 5.513 5.492 1.705 0 3.078-.583 4.222-1.83l-.998-1.103a4.124 4.124 0 0 1-3.183 1.456c-2.06 0-3.681-1.373-3.869-3.557h8.279c.041-.27.083-.645.083-.998 0-2.746-1.851-4.95-4.784-4.95Zm0 1.456c1.768 0 3.162 1.207 3.224 3.141v.042h-6.78c.249-1.893 1.684-3.183 3.556-3.183Zm12.652 2.35v.5c-3.474-.27-6.885.478-6.885 3.619 0 1.81 1.435 3.058 3.349 3.058 1.58 0 2.891-.79 3.64-2.143V18h1.498v-6.802c0-2.433-1.623-3.93-4.16-3.93-1.81 0-3.162.769-4.056 1.83l.852 1.04c.687-.79 1.79-1.436 3.079-1.436 1.664 0 2.683.916 2.683 2.372Zm-3.307 5.804c-1.165 0-2.018-.707-2.018-1.768 0-1.851 1.914-2.371 3.91-2.371.5 0 .999.02 1.477.083v.77c0 1.643-1.456 3.286-3.37 3.286ZM97.96 18h1.602V3.357H97.96V18ZM107.548 18h9.194v-1.498h-7.551v-5.137h6.074V9.867h-6.074V4.854h7.301V3.357h-8.944V18Zm14.101.25c2.184 0 3.744-1.29 3.744-2.975 0-1.789-1.331-2.558-3.453-3.265-1.56-.541-2.35-.936-2.35-1.81 0-.936.874-1.518 1.997-1.518 1.185 0 1.913.603 2.433 1.414l1.165-.853c-.665-1.165-1.83-1.976-3.515-1.976-2.08 0-3.661 1.331-3.661 2.975 0 1.726 1.311 2.496 3.266 3.14 1.809.583 2.537.957 2.537 1.935 0 .894-.873 1.497-2.163 1.497-1.269 0-2.205-.686-2.849-1.622l-1.186.874c.728 1.268 2.246 2.184 4.035 2.184Zm10.755-1.79c-.457.25-.956.313-1.248.313-1.164 0-1.83-.624-1.83-1.893V8.869h2.725V7.517h-2.725V4.626h-1.56v2.89h-1.664V8.87h1.622v6.177c0 2.039 1.228 3.204 3.12 3.204.666 0 1.186-.125 1.56-.312V16.46Zm7.517-5.386v.499c-3.474-.27-6.885.478-6.885 3.619 0 1.81 1.435 3.058 3.349 3.058 1.581 0 2.891-.79 3.64-2.143V18h1.498v-6.802c0-2.433-1.623-3.93-4.16-3.93-1.81 0-3.162.769-4.056 1.83l.852 1.04c.687-.79 1.789-1.436 3.079-1.436 1.664 0 2.683.916 2.683 2.372Zm-3.307 5.803c-1.165 0-2.018-.707-2.018-1.768 0-1.851 1.914-2.371 3.911-2.371.499 0 .998.02 1.476.083v.77c0 1.643-1.456 3.286-3.369 3.286Zm12.408-.416c-.458.25-.957.312-1.248.312-1.165 0-1.831-.624-1.831-1.893V8.869h2.725V7.517h-2.725V4.626h-1.56v2.89h-1.664V8.87h1.623v6.177c0 2.039 1.227 3.204 3.12 3.204.665 0 1.185-.125 1.56-.312V16.46Zm5.793-9.194c-3.078 0-5.262 2.413-5.262 5.491 0 3.1 2.184 5.492 5.512 5.492 1.706 0 3.078-.583 4.222-1.83l-.998-1.103a4.125 4.125 0 0 1-3.182 1.456c-2.06 0-3.682-1.373-3.869-3.557h8.278c.042-.27.083-.645.083-.998 0-2.746-1.851-4.95-4.784-4.95Zm0 1.456c1.768 0 3.162 1.207 3.224 3.141v.042h-6.78c.249-1.893 1.684-3.183 3.556-3.183Z" fill="#A4A8A4"/><path d="M50.33 17.804h3.543v-6.882c.33-1.038 1.875-2.01 4.104-1.524V6.026c-1.853 0-3.447 1.202-4.104 3.118V6.257H50.33v11.547Zm-5.768-9.259c1.079 0 1.618.577 1.618 1.132 0 .808-.657 1.618-4.316 2.031 0-1.894 1.22-3.163 2.698-3.163Zm4.526 8.196V13.67c-1.172.97-2.744 1.502-4.011 1.502-1.314 0-2.368-.692-2.886-1.8 4.643-.322 6.919-1.895 6.919-4.11 0-1.78-1.853-3.28-4.434-3.28-3.425 0-6.19 2.472-6.19 6.075 0 3.394 2.836 5.91 6.403 5.91 1.526-.002 3.073-.44 4.199-1.226Zm-13.18-2.516v-5.68h2.414V6.283l-2.415.024V3.536l-6.709 4.665V4.137l-5.605 4.156v.255h2.112v6.326c0 2.01 1.501 3.072 3.542 3.072.891 0 1.643-.161 2.322-.553v-2.38c-.33.185-.728.325-1.172.325-.75 0-1.196-.37-1.196-1.017V8.548h3.213v6.304c0 2.031 1.501 3.094 3.564 3.094.915 0 1.665-.116 2.392-.553v-2.401a2.528 2.528 0 0 1-1.242.346c-.752-.005-1.22-.397-1.22-1.113ZM18.81 8.545c1.08 0 1.62.577 1.62 1.132 0 .808-.658 1.618-4.317 2.031 0-1.894 1.218-3.163 2.698-3.163Zm4.527 8.196V13.67c-1.172.97-2.744 1.502-4.011 1.502-1.314 0-2.369-.692-2.886-1.8 4.643-.322 6.919-1.895 6.919-4.11 0-1.78-1.853-3.28-4.434-3.28-3.425 0-6.191 2.472-6.191 6.075 0 3.394 2.837 5.91 6.404 5.91 1.525-.002 3.073-.44 4.199-1.226ZM6.308 11.593c1.101 0 2.017.67 2.017 1.8 0 1.063-.916 1.71-2.017 1.71H3.635v-3.51h2.673Zm-.188-5.91c1.055 0 1.9.646 1.9 1.639 0 1.062-.845 1.709-1.9 1.709H3.635V5.682H6.12ZM0 3.002v14.8h7.082c2.72 0 4.856-1.639 4.856-4.133 0-1.594-1.033-2.863-2.534-3.464 1.36-.6 2.275-1.779 2.275-3.187C11.68 4.594 9.521 3 6.777 3H0v.002Z" fill="#017848"/></svg>