<svg fill="none" xmlns="http://www.w3.org/2000/svg" viewBox="0 0 117 21"><path d="m77.415 15.13-1.185-1.02c-1.061 1.498-2.642 2.538-4.805 2.538-3.307 0-5.782-2.58-5.782-5.97 0-3.37 2.475-5.948 5.74-5.948 2.06 0 3.578.956 4.597 2.308l1.227-1.123c-1.206-1.56-3.12-2.787-5.824-2.787-4.139 0-7.425 3.245-7.425 7.55 0 4.306 3.286 7.572 7.467 7.572 2.62 0 4.7-1.27 5.99-3.12Zm6.066-7.863c-3.099 0-5.387 2.413-5.387 5.491 0 3.079 2.288 5.492 5.387 5.492 3.079 0 5.367-2.413 5.367-5.492 0-3.078-2.288-5.49-5.367-5.49Zm0 1.519c2.184 0 3.723 1.81 3.723 3.972 0 2.164-1.539 3.973-3.723 3.973-2.205 0-3.744-1.81-3.744-3.973s1.54-3.972 3.744-3.972ZM94.768 18l4.285-10.483h-1.706l-3.328 8.361-3.307-8.361h-1.706L93.291 18h1.477Zm9.715-10.733c-3.078 0-5.262 2.413-5.262 5.491 0 3.1 2.184 5.492 5.512 5.492 1.705 0 3.078-.583 4.222-1.83l-.998-1.103a4.125 4.125 0 0 1-3.183 1.456c-2.059 0-3.681-1.373-3.869-3.557h8.279a6.99 6.99 0 0 0 .083-.998c0-2.746-1.851-4.95-4.784-4.95Zm0 1.456c1.768 0 3.162 1.207 3.224 3.141v.042h-6.781c.25-1.893 1.685-3.183 3.557-3.183Zm8.18-1.206h-1.56V18h1.602v-5.325c0-2.35 1.31-3.806 3.265-3.806.125 0 .333.02.437.041V7.33a2.44 2.44 0 0 0-.603-.063c-1.415 0-2.6.79-3.141 2.267V7.517Z" fill="#A4A8A4"/><path d="M50.33 17.804h3.543v-6.882c.33-1.038 1.875-2.01 4.104-1.524V6.026c-1.853 0-3.447 1.202-4.104 3.118V6.257H50.33v11.547Zm-5.768-9.259c1.079 0 1.618.577 1.618 1.132 0 .808-.657 1.618-4.316 2.031 0-1.894 1.22-3.163 2.698-3.163Zm4.526 8.196V13.67c-1.172.97-2.744 1.502-4.011 1.502-1.314 0-2.368-.692-2.886-1.8 4.643-.322 6.919-1.895 6.919-4.11 0-1.78-1.853-3.28-4.434-3.28-3.425 0-6.19 2.472-6.19 6.075 0 3.394 2.836 5.91 6.403 5.91 1.526-.002 3.073-.44 4.199-1.226Zm-13.18-2.516v-5.68h2.414V6.283l-2.415.024V3.536l-6.709 4.665V4.137l-5.605 4.156v.255h2.112v6.326c0 2.01 1.501 3.072 3.542 3.072.891 0 1.643-.161 2.322-.553v-2.38c-.33.185-.728.325-1.172.325-.75 0-1.196-.37-1.196-1.017V8.548h3.213v6.304c0 2.031 1.501 3.094 3.564 3.094.915 0 1.665-.116 2.392-.553v-2.401a2.528 2.528 0 0 1-1.242.346c-.752-.005-1.22-.397-1.22-1.113ZM18.81 8.545c1.08 0 1.62.577 1.62 1.132 0 .808-.658 1.618-4.317 2.031 0-1.894 1.218-3.163 2.698-3.163Zm4.527 8.196V13.67c-1.172.97-2.744 1.502-4.011 1.502-1.314 0-2.369-.692-2.886-1.8 4.643-.322 6.919-1.895 6.919-4.11 0-1.78-1.853-3.28-4.434-3.28-3.425 0-6.191 2.472-6.191 6.075 0 3.394 2.837 5.91 6.404 5.91 1.525-.002 3.073-.44 4.199-1.226ZM6.308 11.593c1.101 0 2.017.67 2.017 1.8 0 1.063-.916 1.71-2.017 1.71H3.635v-3.51h2.673Zm-.188-5.91c1.055 0 1.9.646 1.9 1.639 0 1.062-.845 1.709-1.9 1.709H3.635V5.682H6.12ZM0 3.002v14.8h7.082c2.72 0 4.856-1.639 4.856-4.133 0-1.594-1.033-2.863-2.534-3.464 1.36-.6 2.275-1.779 2.275-3.187C11.68 4.594 9.521 3 6.777 3H0v.002Z" fill="#017848"/></svg>