<svg fill="none" xmlns="http://www.w3.org/2000/svg" viewBox="0 0 130 23"><path d="M64.977 18h1.643V3.357h-1.643V18Zm6.144-8.59V7.517h-1.56V18h1.602v-5.429c0-1.81 1.06-3.827 3.245-3.827 1.56 0 2.704 1.082 2.704 2.912V18h1.602v-6.427c0-2.621-1.602-4.306-3.994-4.306-1.789 0-2.974.874-3.599 2.143Zm13.117 8.84c2.184 0 3.744-1.29 3.744-2.975 0-1.789-1.331-2.558-3.453-3.265-1.56-.541-2.35-.936-2.35-1.81 0-.936.874-1.518 1.997-1.518 1.185 0 1.913.603 2.433 1.414l1.165-.853c-.665-1.165-1.83-1.976-3.515-1.976-2.08 0-3.66 1.331-3.66 2.975 0 1.726 1.31 2.496 3.265 3.14 1.81.583 2.537.957 2.537 1.935 0 .894-.873 1.497-2.163 1.497-1.269 0-2.205-.686-2.85-1.622l-1.185.874c.728 1.268 2.246 2.184 4.035 2.184Zm5.597 3.91h1.602v-5.907c.665 1.165 2.184 1.997 3.702 1.997 2.787 0 4.971-2.33 4.971-5.492 0-3.161-2.184-5.49-4.971-5.49-1.54 0-3.1.852-3.765 2.1V7.517h-1.539V22.16Zm1.498-9.402c0-2.558 1.747-4.014 3.556-4.014 1.976 0 3.599 1.685 3.599 4.014 0 2.33-1.643 4.015-3.62 4.015-1.767 0-3.535-1.435-3.535-4.015Zm15.101-5.49c-3.079 0-5.263 2.412-5.263 5.49 0 3.1 2.184 5.492 5.512 5.492 1.706 0 3.079-.583 4.223-1.83l-.999-1.103a4.123 4.123 0 0 1-3.182 1.456c-2.059 0-3.682-1.373-3.869-3.557h8.279a6.99 6.99 0 0 0 .083-.998c0-2.746-1.851-4.95-4.784-4.95Zm0 1.455c1.768 0 3.161 1.207 3.224 3.141v.042h-6.781c.25-1.893 1.685-3.183 3.557-3.183Zm15.543 7.301-1.082-.998c-.728 1.06-1.872 1.726-3.307 1.726-2.101 0-3.723-1.726-3.723-3.994 0-2.246 1.602-3.993 3.744-3.993 1.373 0 2.392.686 3.099 1.664l1.061-1.04c-.936-1.31-2.33-2.122-4.139-2.122-3.016 0-5.408 2.392-5.408 5.47 0 3.1 2.392 5.513 5.408 5.513 1.851 0 3.411-.874 4.347-2.226Zm6.636.437c-.458.25-.957.312-1.248.312-1.165 0-1.83-.624-1.83-1.893V8.869h2.724V7.517h-2.724V4.626h-1.56v2.89h-1.664V8.87h1.622v6.177c0 2.039 1.227 3.204 3.12 3.204.666 0 1.186-.125 1.56-.312V16.46Z" fill="#A4A8A4"/><path d="M50.33 17.804h3.543v-6.882c.33-1.038 1.875-2.01 4.104-1.524V6.026c-1.853 0-3.447 1.202-4.104 3.118V6.257H50.33v11.547Zm-5.768-9.259c1.079 0 1.618.577 1.618 1.132 0 .808-.657 1.618-4.316 2.031 0-1.894 1.22-3.163 2.698-3.163Zm4.526 8.196V13.67c-1.172.97-2.744 1.502-4.011 1.502-1.314 0-2.368-.692-2.886-1.8 4.643-.322 6.919-1.895 6.919-4.11 0-1.78-1.853-3.28-4.434-3.28-3.425 0-6.19 2.472-6.19 6.075 0 3.394 2.836 5.91 6.403 5.91 1.526-.002 3.073-.44 4.199-1.226Zm-13.18-2.516v-5.68h2.414V6.283l-2.415.024V3.536l-6.709 4.665V4.137l-5.605 4.156v.255h2.112v6.326c0 2.01 1.501 3.072 3.542 3.072.891 0 1.643-.161 2.322-.553v-2.38c-.33.185-.728.325-1.172.325-.75 0-1.196-.37-1.196-1.017V8.548h3.213v6.304c0 2.031 1.501 3.094 3.564 3.094.915 0 1.665-.116 2.392-.553v-2.401a2.528 2.528 0 0 1-1.242.346c-.752-.005-1.22-.397-1.22-1.113ZM18.81 8.545c1.08 0 1.62.577 1.62 1.132 0 .808-.658 1.618-4.317 2.031 0-1.894 1.218-3.163 2.698-3.163Zm4.527 8.196V13.67c-1.172.97-2.744 1.502-4.011 1.502-1.314 0-2.369-.692-2.886-1.8 4.643-.322 6.919-1.895 6.919-4.11 0-1.78-1.853-3.28-4.434-3.28-3.425 0-6.191 2.472-6.191 6.075 0 3.394 2.837 5.91 6.404 5.91 1.525-.002 3.073-.44 4.199-1.226ZM6.308 11.593c1.101 0 2.017.67 2.017 1.8 0 1.063-.916 1.71-2.017 1.71H3.635v-3.51h2.673Zm-.188-5.91c1.055 0 1.9.646 1.9 1.639 0 1.062-.845 1.709-1.9 1.709H3.635V5.682H6.12ZM0 3.002v14.8h7.082c2.72 0 4.856-1.639 4.856-4.133 0-1.594-1.033-2.863-2.534-3.464 1.36-.6 2.275-1.779 2.275-3.187C11.68 4.594 9.521 3 6.777 3H0v.002Z" fill="#017848"/></svg>